<svg xmlns="http://www.w3.org/2000/svg" version="1.1" xmlns:xlink="http://www.w3.org/1999/xlink" xmlns:svgjs="http://svgjs.dev/svgjs" width="1500" height="556" viewBox="0 0 1500 556"><g transform="matrix(1,0,0,1,-0.9090909090909918,-0.22335756599858314)"><svg viewBox="0 0 396 147" data-background-color="#fafafa" preserveAspectRatio="xMidYMid meet" height="556" width="1500" xmlns="http://www.w3.org/2000/svg" xmlns:xlink="http://www.w3.org/1999/xlink"><g id="tight-bounds" transform="matrix(1,0,0,1,0.2400000000000091,0.05905316942768479)"><svg viewBox="0 0 395.52 146.88189366114463" height="146.88189366114463" width="395.52"><g><svg viewBox="0 0 395.52 146.88189366114463" height="146.88189366114463" width="395.52"><g transform="matrix(1,0,0,1,0,90.77890289191386)"><svg viewBox="0 0 395.52 56.10299076923077" height="56.10299076923077" width="395.52"><g id="textblocktransform"><svg viewBox="0 0 395.52 56.10299076923077" height="56.10299076923077" width="395.52" id="textblock"><g><svg viewBox="0 0 395.52 56.10299076923077" height="56.10299076923077" width="395.52"><g transform="matrix(1,0,0,1,0,0)"><svg width="395.52" viewBox="3 -35.95 324.98 46.1" height="56.10299076923077" data-palette-color="#130912"><path d="M12.5 0.95L12.5 0.95Q23.15 4.65 28.48 5.98 33.8 7.3 37.63 7.3 41.45 7.3 46.05 5.55L46.05 5.55 46.3 5.95Q40.2 10.15 34 10.15L34 10.15Q27.65 10.15 19.55 6.2L19.55 6.2Q13.3 3.1 11.8 2.45L11.8 2.45Q6.45 0.05 3 0L3 0 3-0.5 3.65-0.5Q4.95-0.5 5.88-1.4 6.8-2.3 6.85-3.65L6.85-3.65 6.85-31.35Q6.8-32.65 5.88-33.58 4.95-34.5 3.65-34.5L3.65-34.5 3-34.5 3-35 13.95-35 13.95-34.5 13.3-34.5Q12-34.5 11.05-33.58 10.1-32.65 10.1-31.35L10.1-31.35 10.1-2.5Q10.1-1.6 10.2-1.13 10.3-0.65 10.85-0.05 11.4 0.55 12.5 0.95ZM25.9-30.68Q31.25-35.7 39.77-35.7 48.3-35.7 53.65-30.68 59-25.65 59-17.5 59-9.35 53.65-4.33 48.3 0.7 39.77 0.7 31.25 0.7 25.9-4.33 20.55-9.35 20.55-17.5 20.55-25.65 25.9-30.68ZM28.62-5.4Q32.85-0.8 39.75-0.8 46.65-0.8 50.87-5.4 55.1-10 55.1-17.5 55.1-25 50.87-29.6 46.65-34.2 39.75-34.2 32.85-34.2 28.62-29.6 24.4-25 24.4-17.5 24.4-10 28.62-5.4ZM94.95-0.5L94.95-0.5 95.34-0.5 95.34 0 84.1 0 84.1-0.5 84.55-0.5Q85.6-0.5 86.12-1.18 86.65-1.85 86.65-2.45 86.65-3.05 86.45-3.65L86.45-3.65 83.25-12.15 69.75-12.15 66.4-3.6Q66.2-3 66.2-2.43 66.2-1.85 66.72-1.18 67.25-0.5 68.3-0.5L68.3-0.5 68.75-0.5 68.75 0 58.7 0 58.7-0.5 59.15-0.5Q60.4-0.5 61.6-1.3 62.8-2.1 63.55-3.65L63.55-3.65 74.85-30.55Q76.7-34.6 76.7-35.7L76.7-35.7 77.15-35.7 90.55-3.65Q91.25-2.1 92.45-1.3 93.65-0.5 94.95-0.5ZM76.65-29.7L70.35-13.65 82.65-13.65 76.65-29.7ZM134.59-34.5L133.69-34.5Q132.44-34.5 131.54-33.63 130.64-32.75 130.59-31.5L130.59-31.5 130.59-5.7Q130.59-2.8 130.94-0.2L130.94-0.2 131.04 0.7 130.59 0.7 103.34-28.4 103.34-3.5Q103.34-2.25 104.24-1.38 105.14-0.5 106.39-0.5L106.39-0.5 107.34-0.5 107.34 0 97.04 0 97.04-0.5 97.99-0.5Q99.24-0.5 100.14-1.38 101.04-2.25 101.04-3.55L101.04-3.55 101.04-29.5Q101.04-32.55 100.69-34.95L100.69-34.95 100.59-35.75 101.09-35.75 128.34-6.65 128.34-31.45Q128.29-32.75 127.39-33.63 126.49-34.5 125.24-34.5L125.24-34.5 124.29-34.5 124.29-35 134.59-35 134.59-34.5ZM184.24 8L184.24 8.5Q182.14 9.05 180.52 9.05 178.89 9.05 177.64 8.85 176.39 8.65 174.97 8.08 173.54 7.5 172.29 6.75 171.04 6 169.79 4.9L169.79 4.9Q167.49 3.05 165.62 0.9 163.74-1.25 158.39-7.18 153.04-13.1 151.29-15.05 149.54-17 148.59-17.1L148.59-17.1 148.59-17.6Q151.49-17.6 152.47-17.73 153.44-17.85 154.54-18.18 155.64-18.5 156.39-19.05L156.39-19.05Q159.34-20.95 159.34-25.35L159.34-25.35Q159.34-29 157.72-31.2 156.09-33.4 153.14-33.45L153.14-33.45 146.94-33.45 146.94-3.65Q146.94-2.4 147.87-1.45 148.79-0.5 150.14-0.5L150.14-0.5 150.74-0.5 150.79 0 139.84 0 139.84-0.5 140.49-0.5Q141.74-0.5 142.69-1.4 143.64-2.3 143.69-3.6L143.69-3.6 143.69-31.35Q143.64-32.65 142.72-33.58 141.79-34.5 140.49-34.5L140.49-34.5 139.84-34.5 139.84-35 153.34-35Q157.74-35 160.42-32.52 163.09-30.05 163.09-25.98 163.09-21.9 160.64-18.98 158.19-16.05 154.64-16.05L154.64-16.05Q154.64-16.05 154.59-16.05L154.59-16.05Q156.29-14.25 158.44-11.85L158.44-11.85Q167.09-2.3 169.54 0.15 171.99 2.6 173.87 4.17 175.74 5.75 177.19 6.5L177.19 6.5Q180.14 8.1 183.04 8.1L183.04 8.1Q183.64 8.1 184.24 8L184.24 8ZM205.19-0.5L205.19-0.5 205.59-0.5 205.59 0 194.34 0 194.34-0.5 194.79-0.5Q195.84-0.5 196.36-1.18 196.89-1.85 196.89-2.45 196.89-3.05 196.69-3.65L196.69-3.65 193.49-12.15 179.99-12.15 176.64-3.6Q176.44-3 176.44-2.43 176.44-1.85 176.96-1.18 177.49-0.5 178.54-0.5L178.54-0.5 178.99-0.5 178.99 0 168.94 0 168.94-0.5 169.39-0.5Q170.64-0.5 171.84-1.3 173.04-2.1 173.79-3.65L173.79-3.65 185.09-30.55Q186.94-34.6 186.94-35.7L186.94-35.7 187.39-35.7 200.79-3.65Q201.49-2.1 202.69-1.3 203.89-0.5 205.19-0.5ZM186.89-29.7L180.59-13.65 192.89-13.65 186.89-29.7ZM240.79-0.5L240.79-0.5 241.19-0.5 241.19 0 229.94 0 229.94-0.5 230.39-0.5Q231.44-0.5 231.96-1.18 232.49-1.85 232.49-2.45 232.49-3.05 232.29-3.65L232.29-3.65 229.09-12.15 215.59-12.15 212.24-3.6Q212.04-3 212.04-2.43 212.04-1.85 212.56-1.18 213.09-0.5 214.14-0.5L214.14-0.5 214.59-0.5 214.59 0 204.54 0 204.54-0.5 204.99-0.5Q206.24-0.5 207.44-1.3 208.64-2.1 209.39-3.65L209.39-3.65 220.69-30.55Q222.54-34.6 222.54-35.7L222.54-35.7 222.99-35.7 236.39-3.65Q237.09-2.1 238.29-1.3 239.49-0.5 240.79-0.5ZM222.49-29.7L216.19-13.65 228.49-13.65 222.49-29.7ZM243.68-2.05L243.68-2.05Q243.53-2.75 243.53-4.75 243.53-6.75 244.28-9L244.28-9 244.73-9Q244.68-8.45 244.68-7.9L244.68-7.9Q244.68-4.85 246.53-2.83 248.38-0.8 251.43-0.8L251.43-0.8Q254.58-0.8 256.61-2.7 258.63-4.6 258.63-7.48 258.63-10.35 256.68-12.15L256.68-12.15 247.08-21.05Q244.38-23.55 244.38-27.1 244.38-30.65 246.76-33.18 249.13-35.7 253.18-35.7L253.18-35.7Q255.08-35.7 257.48-35.2L257.48-35.2 259.43-35.2 259.43-29.05 258.98-29.05Q258.98-31.4 257.36-32.8 255.73-34.2 253.18-34.2 250.63-34.2 248.91-32.5 247.18-30.8 247.18-28.25 247.18-25.7 249.18-23.85L249.18-23.85 259.03-14.75Q261.53-12.45 261.53-8.45 261.53-4.45 258.98-1.88 256.43 0.7 252.18 0.7L252.18 0.7Q249.98 0.7 247.51 0.03 245.03-0.65 243.68-2.05ZM293.88-29.7L293.88-30.55Q293.88-31.75 293.03-32.63 292.18-33.5 291.03-33.55L291.03-33.55 281.53-33.55 281.53-3.6Q281.58-2.3 282.5-1.4 283.43-0.5 284.73-0.5L284.73-0.5 285.38-0.5 285.38 0 274.43 0 274.43-0.5 275.08-0.5Q276.38-0.5 277.31-1.4 278.23-2.3 278.28-3.55L278.28-3.55 278.28-33.55 268.78-33.55Q267.58-33.5 266.75-32.63 265.93-31.75 265.93-30.55L265.93-30.55 265.93-29.7 265.43-29.65 265.43-35.95Q266.18-35.65 268.03-35.35 269.88-35.05 271.43-35.05L271.43-35.05 288.33-35.05Q290.78-35.05 292.41-35.43 294.03-35.8 294.38-35.95L294.38-35.95 294.38-29.65 293.88-29.7ZM327.58-0.5L327.58-0.5 327.98-0.5 327.98 0 316.73 0 316.73-0.5 317.18-0.5Q318.23-0.5 318.75-1.18 319.28-1.85 319.28-2.45 319.28-3.05 319.08-3.65L319.08-3.65 315.88-12.15 302.38-12.15 299.03-3.6Q298.83-3 298.83-2.43 298.83-1.85 299.35-1.18 299.88-0.5 300.93-0.5L300.93-0.5 301.38-0.5 301.38 0 291.33 0 291.33-0.5 291.78-0.5Q293.03-0.5 294.23-1.3 295.43-2.1 296.18-3.65L296.18-3.65 307.48-30.55Q309.33-34.6 309.33-35.7L309.33-35.7 309.78-35.7 323.18-3.65Q323.88-2.1 325.08-1.3 326.28-0.5 327.58-0.5ZM309.28-29.7L302.98-13.65 315.28-13.65 309.28-29.7Z" opacity="1" transform="matrix(1,0,0,1,0,0)" fill="#130912" class="wordmark-text-0" data-fill-palette-color="primary" id="text-0"></path></svg></g></svg></g></svg></g></svg></g><g transform="matrix(1,0,0,1,155.3380425713172,0)"><svg viewBox="0 0 84.84391485736555 77.53433324307693" height="77.53433324307693" width="84.84391485736555"><g><svg xmlns="http://www.w3.org/2000/svg" xmlns:xlink="http://www.w3.org/1999/xlink" version="1.1" x="8" y="0" viewBox="10.360769515458674 5.4614612933530005 71.77776919118831 80.838538706647" style="enable-background:new 0 0 91 91;" xml:space="preserve" height="77.53433324307693" width="68.84391485736555" class="icon-icon-0" data-fill-palette-color="accent" id="icon-0"><g fill="#e77917" data-fill-palette-color="accent"><path d="M77.6 59.5L77 58.9C74.8 56.7 72.8 54.2 70.8 51.8 69.3 49.9 67.7 48 66 46.2 65.2 45.4 64.4 44.5 63.2 43.9 62.1 43.3 60.8 43 59.2 42.9 56 42.6 54.3 42.8 53.5 42.9L46 6.8C45.8 5.9 44.9 5.3 44 5.5L11.7 12.1C11.3 12.2 10.9 12.5 10.6 12.8 10.4 13.2 10.3 13.6 10.4 14.1L20.7 64.2C20.9 65 21.6 65.5 22.4 65.5H22.7L42.7 61.4C44.2 64.2 45.7 67.5 47.2 70.8 50 76.8 52.6 82.5 55.1 85.7 55.4 86.1 55.9 86.3 56.4 86.3 56.8 86.3 57.1 86.2 57.4 85.9 58.1 85.3 58.3 84.3 57.7 83.5 55.4 80.6 52.8 74.8 50.2 69.2 47.4 63.2 44.8 57.5 42.3 54.3 41.7 53.6 41.1 52.8 40.9 52.1 40.8 51.6 40.8 51 41.1 50.9 41.4 50.6 42.2 50.7 43 51 45.5 52 47.5 54.1 49.5 56.2L49.9 56.6C52.4 59.3 55.1 61.9 57.9 64.3 58.3 64.7 59.2 65.5 60.4 65.4 61.7 65.3 62.9 64.3 63.1 62.8 63.3 61.8 63 60.9 62.9 60.3 62.8 59.8 62.6 59.3 62.5 58.8 61.5 54.6 60.2 49.5 55.6 48.5L54.6 48.3H54.5L54 45.9C54.6 45.8 56 45.7 58.8 45.9 59.9 46 60.8 46.2 61.5 46.6S62.8 47.6 63.4 48.2C65 49.9 66.5 51.8 68 53.7 70 56.2 72.1 58.7 74.5 61.1L75.2 61.7C76.2 62.7 77.2 63.6 77.8 64.6 78.3 65.8 78.4 72.4 78.5 76 78.6 79.4 78.6 81.4 78.8 82.3 79 83.1 79.7 83.7 80.5 83.7H80.8C81.7 83.5 82.3 82.6 82.1 81.7 82 81.1 81.9 78.4 81.9 76 81.7 67.9 81.5 64.3 80.7 62.9 79.8 61.7 78.7 60.5 77.6 59.5M44.2 14.8C42.8 14.7 41.4 14.3 40.2 13.5S38.1 11.5 37.5 10.2L43 9.1zM19.6 13.9C19.5 16.8 17.8 19.4 15.1 20.6L14 15.1zM22.6 56.4C25.5 56.4 28.1 58 29.4 60.6L23.7 61.8zM44.3 48C42.2 47.2 40.3 47.3 39 48.4S37.2 51.3 37.7 53.2C38.1 54.6 39 55.7 39.7 56.6 40.1 57.1 40.5 57.7 40.9 58.3L32.8 60C31.1 55.6 26.6 52.8 21.9 53.1L15.9 24C20.3 22.4 23.2 18 23 13.3L34.2 11C35 13.2 36.4 15 38.3 16.4 40.1 17.7 42.3 18.3 44.4 18.3H44.8L52.2 54.5 52 54C49.8 51.7 47.5 49.3 44.3 48M59.3 59.8C59.4 60.4 59.6 60.9 59.7 61.4V61.6C58.4 60.5 57.2 59.3 56 58.1 56.2 57.7 56.3 57.3 56.2 56.8L55.2 52.1C57.6 52.9 58.5 56.6 59.3 59.8" fill="#e77917" data-fill-palette-color="accent"></path><path d="M42.6 35.3C42.4 34.1 41.3 32.4 37.9 31.3 37.7 31.3 37.6 31.2 37.4 31.2H29C27.5 30.7 27 30.2 27 29.9V29.7C26.7 28.4 28.1 27 29.9 26.7L33.9 25.9C34.8 25.7 35.8 25.8 36.5 26.2 36.9 26.4 37.5 26.8 37.7 27.6L41 27C40.7 25.4 39.6 24.1 38.1 23.3 36.7 22.5 34.9 22.3 33.2 22.6L32.7 20 29.4 20.6 29.9 23.2 29.2 23.3C25.5 24 23.1 27.1 23.7 30.3V30.5C24.1 32.3 25.6 33.6 28.3 34.4 28.5 34.4 28.6 34.5 28.8 34.5H37.1C38.6 35 39.2 35.5 39.2 35.8V36C39.5 37.3 38.1 38.7 36.3 39L32.3 39.8C31.4 40 30.4 39.9 29.7 39.5 29.3 39.3 28.7 38.9 28.5 38.1V37L25.2 37.6 25.5 38.9C25.8 40.5 26.9 41.8 28.4 42.7 29.4 43.2 30.6 43.5 31.8 43.5 32.3 43.5 32.8 43.5 33.3 43.4L34 43.3 34.5 46.1 37.8 45.5 37.3 42.7C41 42 43.4 38.8 42.8 35.7z" fill="#e77917" data-fill-palette-color="accent"></path></g></svg></g></svg></g><g><rect width="155.3380425713172" height="5.059425605855705" y="71.47490763722122" x="240.18195742868275" fill="#e77917" data-fill-palette-color="accent"></rect><rect width="155.3380425713172" height="5.059425605855705" y="71.47490763722122" x="0" fill="#e77917" data-fill-palette-color="accent"></rect><rect width="155.3380425713172" height="5.059425605855705" y="61.35605642550981" x="240.18195742868275" fill="#e77917" data-fill-palette-color="accent"></rect><rect width="155.3380425713172" height="5.059425605855705" y="61.35605642550981" x="0" fill="#e77917" data-fill-palette-color="accent"></rect></g></svg></g><defs></defs></svg><rect width="395.52" height="146.88189366114463" fill="none" stroke="none" visibility="hidden"></rect></g></svg></g></svg>